<svg xmlns="http://www.w3.org/2000/svg" width="26.225" height="19.957" viewBox="0 0 26.225 19.957">
  <defs>
    <style>
      .cls-1 {
        fill: #707070;
      }
    </style>
  </defs>
  <path id="Icon_metro-users" data-name="Icon metro-users" class="cls-1" d="M20.055,20.161V19.133A5.43,5.43,0,0,0,22.969,14.5c0-3.1,0-5.613-4.371-5.613S14.227,11.4,14.227,14.5a5.43,5.43,0,0,0,2.914,4.635v1.029C12.2,20.507,8.4,22.586,8.4,25.1H28.8c0-2.513-3.8-4.592-8.742-4.938Zm-10.035.482a15.237,15.237,0,0,1,4.548-1.567,7.11,7.11,0,0,1-.922-1.15A6.361,6.361,0,0,1,12.588,14.5a9.609,9.609,0,0,1,.7-4.556,4.718,4.718,0,0,1,3.625-2.329c-.385-1.491-1.41-2.47-4.139-2.47C8.4,5.143,8.4,7.656,8.4,10.756a5.43,5.43,0,0,0,2.914,4.635v1.029c-4.942.346-8.742,2.425-8.742,4.938H8.923a9.335,9.335,0,0,1,1.1-.715Z" transform="translate(-2.571 -5.143)"/>
</svg>
