<svg xmlns="http://www.w3.org/2000/svg" width="24.995" height="19.617" viewBox="0 0 24.995 19.617">
  <defs>
    <style>
      .cls-1 {
        fill: #707070;
      }
    </style>
  </defs>
  <path id="Icon_awesome-newspaper" data-name="Icon awesome-newspaper" class="cls-1" d="M23.954,4.5H3.819A1.145,1.145,0,0,0,2.777,5.726v.409H1.041A1.145,1.145,0,0,0,0,7.361v13.9a2.672,2.672,0,0,0,2.43,2.861H22.913A2.29,2.29,0,0,0,25,21.665V5.726A1.145,1.145,0,0,0,23.954,4.5ZM2.43,21.665a.382.382,0,0,1-.347-.409V8.587h.694V21.256A.382.382,0,0,1,2.43,21.665Zm10.241-.817h-6.6a.573.573,0,0,1-.521-.613v-.409a.573.573,0,0,1,.521-.613h6.6a.573.573,0,0,1,.521.613v.409A.573.573,0,0,1,12.671,20.847Zm9.026,0H15.1a.573.573,0,0,1-.521-.613v-.409a.573.573,0,0,1,.521-.613h6.6a.573.573,0,0,1,.521.613v.409A.573.573,0,0,1,21.7,20.847Zm-9.026-4.9h-6.6a.573.573,0,0,1-.521-.613v-.409a.573.573,0,0,1,.521-.613h6.6a.573.573,0,0,1,.521.613v.409A.573.573,0,0,1,12.671,15.943Zm9.026,0H15.1a.573.573,0,0,1-.521-.613v-.409a.573.573,0,0,1,.521-.613h6.6a.573.573,0,0,1,.521.613v.409A.573.573,0,0,1,21.7,15.943Zm0-4.9H6.075a.573.573,0,0,1-.521-.613V8.383a.573.573,0,0,1,.521-.613H21.7a.573.573,0,0,1,.521.613v2.043A.573.573,0,0,1,21.7,11.039Z" transform="translate(0 -4.5)"/>
</svg>
