<svg xmlns="http://www.w3.org/2000/svg" width="26.402" height="26.961" viewBox="0 0 26.402 26.961">
  <defs>
    <style>
      .cls-1 {
        fill: #707070;
      }
    </style>
  </defs>
  <path id="Icon_material-settings" data-name="Icon material-settings" class="cls-1" d="M26.694,17.8a10.437,10.437,0,0,0,.095-1.321,10.437,10.437,0,0,0-.095-1.321l2.864-2.224a.677.677,0,0,0,.163-.863L27.006,7.408a.684.684,0,0,0-.828-.3L22.8,8.46a9.932,9.932,0,0,0-2.294-1.321l-.516-3.572A.66.66,0,0,0,19.324,3H13.9a.66.66,0,0,0-.665.566l-.516,3.572A10.444,10.444,0,0,0,10.422,8.46L7.042,7.112a.664.664,0,0,0-.828.3L3.5,12.073a.662.662,0,0,0,.163.863L6.527,15.16a10.621,10.621,0,0,0-.1,1.321,10.621,10.621,0,0,0,.1,1.321L3.663,20.026a.677.677,0,0,0-.163.863l2.714,4.664a.684.684,0,0,0,.828.3L10.422,24.5a9.932,9.932,0,0,0,2.294,1.321l.516,3.572a.66.66,0,0,0,.665.566h5.429a.66.66,0,0,0,.665-.566l.516-3.572A10.444,10.444,0,0,0,22.8,24.5l3.379,1.348a.664.664,0,0,0,.828-.3l2.714-4.664a.677.677,0,0,0-.163-.863L26.694,17.8ZM16.61,21.2a4.718,4.718,0,1,1,4.75-4.718A4.739,4.739,0,0,1,16.61,21.2Z" transform="translate(-3.406 -3)"/>
</svg>
