<svg xmlns="http://www.w3.org/2000/svg" width="21.246" height="21.885" viewBox="0 0 21.246 21.885">
  <defs>
    <style>
      .cls-1 {
        fill: #707070;
      }
    </style>
  </defs>
  <path id="Icon_awesome-question-circle" data-name="Icon awesome-question-circle" class="cls-1" d="M21.809,11.505A10.786,10.786,0,0,1,11.186,22.448,10.786,10.786,0,0,1,.563,11.505,10.788,10.788,0,0,1,11.186.563,10.788,10.788,0,0,1,21.809,11.505ZM11.471,4.181A5.514,5.514,0,0,0,6.478,6.994a.541.541,0,0,0,.116.717L8.081,8.872a.5.5,0,0,0,.714-.094c.765-1,1.29-1.579,2.455-1.579.875,0,1.957.58,1.957,1.454,0,.661-.53,1-1.394,1.5-1.008.582-2.341,1.306-2.341,3.118v.176a.522.522,0,0,0,.514.529h2.4a.522.522,0,0,0,.514-.529v-.059c0-1.256,3.563-1.308,3.563-4.706C16.462,6.122,13.885,4.181,11.471,4.181Zm-.285,10.943a2.031,2.031,0,1,0,1.97,2.03A2,2,0,0,0,11.186,15.123Z" transform="translate(-0.563 -0.563)"/>
</svg>
