<svg xmlns="http://www.w3.org/2000/svg" width="20.024" height="21.957" viewBox="0 0 20.024 21.957">
  <defs>
    <style>
      .cls-1 {
        fill: #707070;
      }
    </style>
  </defs>
  <path id="Icon_awesome-calculator" data-name="Icon awesome-calculator" class="cls-1" d="M17.878,0H2.145A2.157,2.157,0,0,0,0,2.058V19.9a2.157,2.157,0,0,0,2.145,2.058H17.878A2.157,2.157,0,0,0,20.024,19.9V2.058A2.157,2.157,0,0,0,17.878,0ZM5.721,18.663a.6.6,0,0,1-.572.549H3.433a.6.6,0,0,1-.572-.549V17.016a.6.6,0,0,1,.572-.549H5.149a.6.6,0,0,1,.572.549Zm0-5.489a.6.6,0,0,1-.572.549H3.433a.6.6,0,0,1-.572-.549V11.527a.6.6,0,0,1,.572-.549H5.149a.6.6,0,0,1,.572.549Zm5.721,5.489a.6.6,0,0,1-.572.549H9.154a.6.6,0,0,1-.572-.549V17.016a.6.6,0,0,1,.572-.549H10.87a.6.6,0,0,1,.572.549Zm0-5.489a.6.6,0,0,1-.572.549H9.154a.6.6,0,0,1-.572-.549V11.527a.6.6,0,0,1,.572-.549H10.87a.6.6,0,0,1,.572.549Zm5.721,5.489a.6.6,0,0,1-.572.549H14.875a.6.6,0,0,1-.572-.549V11.527a.6.6,0,0,1,.572-.549h1.716a.6.6,0,0,1,.572.549Zm0-10.978a.6.6,0,0,1-.572.549H3.433a.6.6,0,0,1-.572-.549V3.293a.6.6,0,0,1,.572-.549H16.591a.6.6,0,0,1,.572.549Z"/>
</svg>
