<svg xmlns="http://www.w3.org/2000/svg" width="26.009" height="16.547" viewBox="0 0 26.009 16.547">
  <defs>
    <style>
      .cls-1 {
        fill: #707070;
      }
    </style>
  </defs>
  <path id="Icon_awesome-money-bill-wave-alt" data-name="Icon awesome-money-bill-wave-alt" class="cls-1" d="M25.243,3.08a13.1,13.1,0,0,0-4.731-.83c-5.005,0-10.011,2.3-15.016,2.3a13.478,13.478,0,0,1-3.765-.507,1.518,1.518,0,0,0-.421-.06A1.241,1.241,0,0,0,0,5.161V16.879a1.174,1.174,0,0,0,.766,1.088A13.09,13.09,0,0,0,5.5,18.8c5.005,0,10.011-2.3,15.016-2.3A13.478,13.478,0,0,1,24.278,17a1.518,1.518,0,0,0,.421.06,1.241,1.241,0,0,0,1.311-1.175V4.168A1.175,1.175,0,0,0,25.243,3.08ZM13,14.069a3.408,3.408,0,0,1-3.251-3.546A3.408,3.408,0,0,1,13,6.978a3.408,3.408,0,0,1,3.251,3.546A3.408,3.408,0,0,1,13,14.069Z" transform="translate(0 -2.25)"/>
</svg>
