<svg xmlns="http://www.w3.org/2000/svg" width="24.995" height="18.856" viewBox="0 0 24.995 18.856">
  <defs>
    <style>
      .cls-1 {
        fill: #707070;
      }
    </style>
  </defs>
  <path id="Icon_awesome-user-lock" data-name="Icon awesome-user-lock" class="cls-1" d="M8.748,9.428a4.863,4.863,0,0,0,5-4.714A4.863,4.863,0,0,0,8.748,0a4.863,4.863,0,0,0-5,4.714A4.863,4.863,0,0,0,8.748,9.428ZM12.5,11.785a2.221,2.221,0,0,1,.316-1.123,5.658,5.658,0,0,0-.566-.055H11.6a7.173,7.173,0,0,1-5.694,0H5.249A5.107,5.107,0,0,0,0,15.555v1.533a1.824,1.824,0,0,0,1.875,1.768H12.845a2.24,2.24,0,0,1-.348-1.178Zm11.248-1.178H22.5V7.66a3.13,3.13,0,0,0-6.249,0v2.946H15a1.216,1.216,0,0,0-1.25,1.178v5.892A1.216,1.216,0,0,0,15,18.856h8.748A1.216,1.216,0,0,0,25,17.677V11.785A1.216,1.216,0,0,0,23.746,10.606Zm-4.374,5.3a1.181,1.181,0,1,1,1.25-1.178A1.216,1.216,0,0,1,19.372,15.91Zm1.25-5.3h-2.5V7.66a1.252,1.252,0,0,1,2.5,0Z"/>
</svg>
