<svg xmlns="http://www.w3.org/2000/svg" width="29.35" height="21.455" viewBox="0 0 29.35 21.455">
  <defs>
    <style>
      .cls-1 {
        fill: #707070;
      }
    </style>
  </defs>
  <path id="Icon_awesome-users-cog" data-name="Icon awesome-users-cog" class="cls-1" d="M28,17.068a5.865,5.865,0,0,0,0-2.041l1.183-.714a.354.354,0,0,0,.151-.407,7.27,7.27,0,0,0-1.523-2.75.324.324,0,0,0-.413-.067l-1.183.714a5.334,5.334,0,0,0-1.692-1.02V9.356a.346.346,0,0,0-.261-.34,6.633,6.633,0,0,0-3.036,0,.346.346,0,0,0-.261.34v1.427a5.334,5.334,0,0,0-1.692,1.02l-1.183-.714a.325.325,0,0,0-.413.067,7.27,7.27,0,0,0-1.523,2.75.36.36,0,0,0,.151.407l1.183.714a5.865,5.865,0,0,0,0,2.041l-1.183.714a.354.354,0,0,0-.151.407,7.306,7.306,0,0,0,1.523,2.75.324.324,0,0,0,.413.067l1.183-.714a5.334,5.334,0,0,0,1.692,1.02V22.74a.346.346,0,0,0,.261.34,6.633,6.633,0,0,0,3.036,0,.346.346,0,0,0,.261-.34V21.313a5.334,5.334,0,0,0,1.692-1.02l1.183.714a.325.325,0,0,0,.413-.067,7.27,7.27,0,0,0,1.523-2.75.36.36,0,0,0-.151-.407L28,17.068Zm-5.251,1.3a2.325,2.325,0,1,1,2.224-2.323A2.278,2.278,0,0,1,22.749,18.371ZM4.4,11.449A3.005,3.005,0,0,0,7.338,8.384,3.005,3.005,0,0,0,4.4,5.318,3.005,3.005,0,0,0,1.468,8.384,3.005,3.005,0,0,0,4.4,11.449Zm10.274,1.533c.087,0,.17-.024.257-.029A8.907,8.907,0,0,1,16.6,10.118a1.773,1.773,0,0,1,1.325-.6,1.706,1.706,0,0,1,.9.254l.362.22c.037-.024.073-.043.11-.067a5.5,5.5,0,0,0,.514-2.3,5.252,5.252,0,0,0-5.137-5.365A5.244,5.244,0,0,0,9.54,7.617,5.252,5.252,0,0,0,14.677,12.982ZM19.5,22.3c-.105-.057-.211-.125-.312-.187a2.207,2.207,0,0,1-1.261.469,1.788,1.788,0,0,1-1.325-.6,8.834,8.834,0,0,1-1.844-3.334,2.053,2.053,0,0,1,1.183-2.409q-.007-.187,0-.374l-.362-.22a1.889,1.889,0,0,1-.449-.388c-.151.01-.3.029-.449.029a6.989,6.989,0,0,1-3.142-.766h-.381a5.407,5.407,0,0,0-5.288,5.518v1.38a2.253,2.253,0,0,0,2.2,2.3H19.786a1.9,1.9,0,0,1-.284-.972ZM7.939,13.873a2.865,2.865,0,0,0-2.068-.891H2.935A3.005,3.005,0,0,0,0,16.048v1.533a1.5,1.5,0,0,0,1.468,1.533H4.49a7.031,7.031,0,0,1,3.449-5.24Z" transform="translate(0 -2.257)"/>
</svg>
